:SAMPLES-PER-SECOND 30
:FULLY-SPECIFIED
:DEGREES
631
root  -52.8762 40.217 5.81756 -28.7395 -72.5241 38.3015
RightUpLeg  -27.7614 -14.9963 -11.4958
RightLeg  20.2937 7.75469 2.95429
RightFoot  2.67877 -0.229655 2.01811
RightToes  1.33877e-009 0 -3.6325e-017
Spine  26.331 -7.12452 6.97566
Spine1  1.48093 -5.11446 -4.40643
HEad  -34.0306 -7.40176 -3.4601
LeftShoulder1  0.842657 -12.8996 3.77387
LeftArm  -50.5721 -71.5985 -2.3569
LeftForeArm  -16.3703 -5.37911 1.14165
LeftHand  -0.022235 6.94317 1.10594
RightShoulder  0.39354 2.24817 -1.8431
RightArm  -54.1326 65.7473 -11.9786
RightForeArm  -24.5252 2.32638 -1.41106
RightHand  0.0290265 4.23817 0.0979517
LeftUpLeg  -3.23952 10.5841 -1.57951
LeftLeg  16.2116 -3.22037 -0.974032
LeftFoot  -6.41678 0.550081 -11.88
LeftToes  -1.45701e-009 4.75788e-011 -4.21586e-011
632
root  -52.6474 40.1792 5.93323 -27.0989 -72.6164 36.2204
RightUpLeg  -27.4531 -15.5877 -11.0795
RightLeg  19.9021 8.21307 3.07665
RightFoot  3.10313 -0.271511 2.30548
RightToes  1.33877e-009 0 -3.6325e-017
Spine  26.3648 -7.39873 6.66226
Spine1  1.1885 -5.59376 -3.83809
HEad  -33.7041 -6.03487 -4.16153
LeftShoulder1  0.907978 -12.5904 3.20146
LeftArm  -50.1541 -71.4359 -3.56711
LeftForeArm  -16.2478 -5.55714 1.49775
LeftHand  -0.039658 7.07472 -0.0897664
RightShoulder  0.455004 2.23051 -0.565388
RightArm  -49.4095 64.2621 -5.24232
RightForeArm  -23.1165 7.13546 -1.41658
RightHand  -0.163002 5.56565 -2.03825
LeftUpLeg  -2.96173 10.5179 -0.568075
LeftLeg  18.2367 -3.37649 -0.897454
LeftFoot  -7.33606 0.461758 -11.9154
LeftToes  -1.45701e-009 4.75788e-011 -4.21586e-011
633
root  -52.4132 40.1345 6.08803 -25.5589 -72.5763 34.364
RightUpLeg  -27.1064 -16.0436 -10.9181
RightLeg  19.3088 8.45752 3.07959
RightFoot  3.40163 -0.414138 3.38129
RightToes  1.33877e-009 0 -3.6325e-017
Spine  25.61 -7.58977 6.29751
Spine1  1.7608 -5.95086 -3.60732
HEad  -33.5628 -4.95239 -4.68559
LeftShoulder1  0.865475 -12.2893 3.38237
LeftArm  -48.7142 -70.7471 -7.84849
LeftForeArm  -16.3443 -7.1866 2.5357
LeftHand  -0.0372063 6.99044 0.0508754
RightShoulder  0.529074 1.95265 1.41907
RightArm  -45.256 61.9434 1.46284
RightForeArm  -22.3651 12.7882 -0.396426
RightHand  -0.440118 6.74274 -4.54351
LeftUpLeg  -2.95483 9.46878 0.371482
LeftLeg  20.0197 -2.89795 -0.842944
LeftFoot  -7.9611 0.387683 -11.4858
LeftToes  -1.45701e-009 4.75788e-011 -4.21586e-011
634
root  -52.1218 40.0681 6.26094 -23.796 -72.3913 31.9177
RightUpLeg  -26.7158 -17.3189 -10.5988
RightLeg  19.1893 9.24748 3.39338
RightFoot  3.8149 -0.385353 3.09498
RightToes  1.33877e-009 0 -3.6325e-017
Spine  25.4318 -7.44544 5.15956
Spine1  1.74004 -6.43193 -1.67538
HEad  -32.8732 -4.18445 -5.78381
LeftShoulder1  0.98508 -11.7704 2.26844
LeftArm  -45.7863 -70.046 -11.7648
LeftForeArm  -18.4461 -8.48904 2.46918
LeftHand  -0.0240587 6.62886 1.13956
RightShoulder  0.60628 2.04387 2.83087
RightArm  -44.9541 57.805 9.08704
RightForeArm  -16.0199 18.8426 2.4655
RightHand  -0.757873 7.68047 -7.08533
LeftUpLeg  -2.80069 7.95514 1.64604
LeftLeg  21.6686 -2.89132 -0.934262
LeftFoot  -8.93293 0.284193 -10.965
LeftToes  -1.45701e-009 4.75788e-011 -4.21586e-011
635
root  -51.8 40.0153 6.45384 -22.31 -72.4778 29.7388
RightUpLeg  -26.1719 -17.3693 -10.4796
RightLeg  18.6235 9.07271 3.29564
RightFoot  4.46252 -0.372973 2.90521
RightToes  1.33877e-009 0 -3.6325e-017
Spine  25.1644 -7.33789 4.96018
Spine1  1.49696 -6.45023 -1.21505
HEad  -32.0968 -3.99659 -6.01765
LeftShoulder1  1.17409 -11.0848 0.453743
LeftArm  -41.8465 -69.3172 -19.4462
LeftForeArm  -15.9555 -10.9277 2.69993
LeftHand  -0.0142352 5.9519 2.85824
RightShoulder  0.680533 1.90381 4.74991
RightArm  -42.6542 52.4003 16.7294
RightForeArm  -11.276 24.2307 5.88349
RightHand  -0.987462 8.54754 -8.57684
LeftUpLeg  -2.69657 6.5972 3.04797
LeftLeg  22.7931 -2.682 -0.906754
LeftFoot  -9.58914 0.217162 -10.4323
LeftToes  -1.45701e-009 4.75788e-011 -4.21586e-011
636
root  -51.4837 39.9564 6.6846 -22.4033 -72.4415 28.4276
RightUpLeg  -24.743 -17.6372 -10.9305
RightLeg  18.0929 9.14693 3.28898
RightFoot  4.57604 -0.462359 3.53019
RightToes  1.33877e-009 0 -3.6325e-017
Spine  25.0911 -7.19785 4.31558
Spine1  1.98803 -6.42911 -1.12531
HEad  -31.5462 -3.8842 -6.57061
LeftShoulder1  1.27988 -10.4717 -0.810191
LeftArm  -38.3546 -67.3993 -26.3038
LeftForeArm  -12.2042 -13.0182 2.14101
LeftHand  -0.0110032 5.80369 4.17731
RightShoulder  0.721391 1.26285 7.61948
RightArm  -34.5941 47.909 22.1113
RightForeArm  -12.9247 27.3096 6.54019
RightHand  -1.14468 8.7983 -9.7123
LeftUpLeg  -1.64705 5.09986 4.27608
LeftLeg  23.2782 -2.97413 -1.07131
LeftFoot  -10.7346 0.117074 -9.91869
LeftToes  -1.45701e-009 4.75788e-011 -4.21586e-011
637
root  -51.0845 39.8582 6.98048 -21.568 -72.2716 26.5576
RightUpLeg  -23.9485 -18.1129 -11.2554
RightLeg  17.7857 9.17291 3.33457
RightFoot  5.15322 -0.490608 3.62573
RightToes  1.33877e-009 0 -3.6325e-017
Spine  24.2633 -7.0162 4.03355
Spine1  2.72317 -6.38004 -0.75405
HEad  -31.1046 -4.14773 -7.41918
LeftShoulder1  1.46258 -9.83751 -2.88336
LeftArm  -33.459 -65.1416 -32.5278
LeftForeArm  -8.33436 -13.9446 1.20955
LeftHand  -0.0587807 4.51698 4.74294
RightShoulder  0.736985 0.643184 10.5857
RightArm  -27.3636 42.8642 26.8269
RightForeArm  -12.6532 28.1093 6.71959
RightHand  -1.16566 9.36655 -9.51963
LeftUpLeg  -1.54279 3.44958 5.46272
LeftLeg  24.0044 -3.56575 -1.40469
LeftFoot  -11.9351 0.0241333 -9.11725
LeftToes  -1.45701e-009 4.75788e-011 -4.21586e-011
638
root  -50.6335 39.7203 7.31962 -21.5719 -72.2695 25.2875
RightUpLeg  -23.2067 -18.5372 -11.784
RightLeg  17.8632 9.49907 3.48396
RightFoot  5.59499 -0.547205 3.93196
RightToes  1.33877e-009 0 -3.6325e-017
Spine  23.6466 -6.66231 3.33214
Spine1  3.39057 -6.28564 -0.0652027
HEad  -30.9322 -4.02392 -8.02235
LeftShoulder1  1.65978 -8.89432 -5.58955
LeftArm  -28.1513 -61.9763 -38.004
LeftForeArm  -3.62168 -14.7711 -0.0317589
LeftHand  -0.108516 3.59101 6.16525
RightShoulder  0.723526 0.0472941 13.5197
RightArm  -19.662 38.1517 30.5005
RightForeArm  -12.859 25.9732 6.20997
RightHand  -1.1825 9.62737 -9.49291
LeftUpLeg  -1.3622 1.76992 6.45434
LeftLeg  24.6175 -4.52357 -1.93102
LeftFoot  -13.1898 -0.0552042 -8.30552
LeftToes  -1.45701e-009 4.75788e-011 -4.21586e-011
